<?xml version="1.0" encoding="UTF-8" standalone="no"?>
<svg
   xmlns:dc="http://purl.org/dc/elements/1.1/"
   xmlns:cc="http://creativecommons.org/ns#"
   xmlns:rdf="http://www.w3.org/1999/02/22-rdf-syntax-ns#"
   xmlns:svg="http://www.w3.org/2000/svg"
   xmlns="http://www.w3.org/2000/svg"
   xmlns:sodipodi="http://sodipodi.sourceforge.net/DTD/sodipodi-0.dtd"
   xmlns:inkscape="http://www.inkscape.org/namespaces/inkscape"
   class="gk-logo--horizontal"
   viewBox="0 0 462.4 105.9"
   version="1.1"
   id="svg14"
   sodipodi:docname="logo.svg"
   inkscape:version="0.92.1 r">
  <metadata
     id="metadata20">
    <rdf:RDF>
      <cc:Work
         rdf:about="">
        <dc:format>image/svg+xml</dc:format>
        <dc:type
           rdf:resource="http://purl.org/dc/dcmitype/StillImage" />
        <dc:title />
      </cc:Work>
    </rdf:RDF>
  </metadata>
  <defs
     id="defs18" />
  <sodipodi:namedview
     pagecolor="#ffffff"
     bordercolor="#666666"
     borderopacity="1"
     objecttolerance="10"
     gridtolerance="10"
     guidetolerance="10"
     inkscape:pageopacity="0"
     inkscape:pageshadow="2"
     inkscape:window-width="1280"
     inkscape:window-height="969"
     id="namedview16"
     showgrid="false"
     inkscape:zoom="2.43"
     inkscape:cx="212.22417"
     inkscape:cy="16.456119"
     inkscape:window-x="0"
     inkscape:window-y="27"
     inkscape:window-maximized="1"
     inkscape:current-layer="text4490" />
  <path
     class="gk-logo__squid"
     d="M117.5 23.9c-.5-1.3-2-1.9-3.2-1.4-.9.4-1.5 1.3-1.5 2.2 0 .3 0 .6.2.8 2.3 6.1 3.6 12.7 3.6 19.7 0 28.3-21.1 51.8-48.5 55.3V74.4c1.7-.3 3.3-.8 4.9-1.3V95c22.3-5.4 39-25.6 39-49.8C112 25.9 101.3 9 85.5.3c-1.2-.7-2.7-.2-3.3 1.1-.2.3-.2.7-.2 1.1 0 .9.5 1.7 1.2 2.1 14.3 7.9 24 23.2 24 40.7 0 19.7-12.2 36.5-29.5 43.3V69.2c3-.9 5.2-3.7 5.2-7.1 0-2.8-1.4-5.1-3.7-6.4 1.7-16.8 9.4-12.3 9.4-17.7v-3.1c0-8-18.5-34.1-27.2-34.7h-1.6c-8.7.6-27.2 26.7-27.2 34.7V38c0 5.3 7.6.9 9.4 17.7-2.2 1.3-3.6 3.7-3.6 6.4 0 3.3 2.2 6.1 5.2 7.1v19.4C26.4 81.8 14.1 65 14.1 45.3c0-17.5 9.7-32.8 24-40.7 1.1-.6 1.6-2 1-3.2C38.8.5 37.9 0 37 0c-.4 0-.8.1-1.2.3C20 9 9.3 25.9 9.3 45.2c0 24.2 16.7 44.4 39.2 49.9V73.2c1.6.5 3.2 1 4.9 1.3v26.1C26 97 4.9 73.6 4.9 45.2c0-6.9 1.3-13.5 3.6-19.7.5-1.2-.1-2.6-1.3-3.1-.3-.1-.6-.2-.9-.2-1 0-1.9.6-2.3 1.6-2.6 6.7-4 13.9-4 21.4 0 32.7 25.8 59.3 58.2 60.6V75.1c.9.1 2.5.1 2.5.1s1.6 0 2.5-.1v30.7c32.4-1.3 58.2-27.9 58.2-60.6-.1-7.5-1.4-14.7-3.9-21.3zM71.9 58.5c.9-.9 2.1-1.5 3.5-1.5s2.6.6 3.5 1.5c.9.9 1.5 2.1 1.5 3.5s-.6 2.6-1.5 3.5c-.9.9-2.1 1.5-3.5 1.5s-2.6-.6-3.5-1.5c-.9-.9-1.5-2.1-1.5-3.5s.6-2.6 1.5-3.5zm-22.4 7c-.9.9-2.1 1.5-3.5 1.5s-2.6-.6-3.5-1.5c-1-.9-1.5-2.1-1.5-3.5s.6-2.6 1.5-3.5c.9-.9 2.1-1.5 3.5-1.5s2.6.6 3.5 1.5c.9.9 1.5 2.1 1.5 3.5-.1 1.4-.6 2.6-1.5 3.5z"
     id="path2"
     style="fill:#149287;fill-opacity:1;stroke:#000000;stroke-opacity:1" />
  <path
     class="gk-logo__wordmark"
     d="M176.9 51.9c-1-1.5-2.2-2.9-3.6-4-2.5-2-5.6-3.2-9.4-3.2-7.9 0-15.9 6-15.9 16.6 0 11.1 8.1 16.9 15.9 16.9 3.9 0 7.2-1.1 9.7-3 2.6-1.9 4.3-4.5 5-7.4h-18.3v-7.9H190c.1 3.2-.3 8.2-2.2 12.3-4.6 10.2-15.1 14.7-23.9 14.7-14.6 0-25.8-11.3-25.8-25.5 0-14.6 11.6-25.3 25.9-25.3 11.1 0 20.8 7 24 15.9h-11.1zM197 36.9h8.7v7.7H197v-7.7zm0 12.6h8.7v36.3H197V49.5zM217.2 56.2h-6v-6.7h6V36.9h8.7v12.6h6.2v6.7h-6.2v29.6h-8.7V56.2zM239.3 36.9h9.9v22.7l16.2-22.7h10.4L258 61.3l19.5 24.6h-12l-16.3-22v22h-9.9v-49zM282.2 49.5h8.2v4.8c1.6-3.2 4.6-5.8 10.1-5.9v8.7h-.4c-6.1 0-9.2 2.8-9.2 9.1v19.6h-8.7V49.5zM341.7 85.8H333v-5.2c-2.3 4.2-7.1 6.4-12.2 6.4-11.6 0-18.5-9.1-18.5-19.3 0-11.4 8.3-19.3 18.5-19.3 6.6 0 10.7 3.5 12.2 6.4v-5.3h8.7v36.3zm-30.7-18c0 4.5 3.2 11.1 11.1 11.1 4.8 0 8-2.5 9.7-5.8.9-1.6 1.3-3.3 1.4-5.1.1-1.7-.3-3.5-1-5.1-1.5-3.4-4.9-6.4-10.1-6.4-7.1 0-11.1 5.6-11.1 11.3zM351.2 36.9h8.7v26.5l12.5-13.8h10.4l-15.1 16 15.2 20.3H373l-13-18.1v18.1h-8.7v-49z"
     id="path4"
     style="fill:#333366;fill-opacity:1;stroke:#000000;stroke-opacity:1" />
  <path
     class="gk-logo__wordmark"
     d="M397.7 77.2c4.5 3.7 10.4 2.2 13.8-1.5 2.9-3.1 3.5-6.5 2.4-9.7l6.1-6.5c1.8 4 2.2 8 1.6 11.6-.6 3.7-2.2 7-4.8 9.7-7.7 8.1-19.8 7.7-27.1.8-7.5-7.1-8.5-19.2-1-27.2 3.7-3.9 8.5-6 13.4-6 6.4-.1 11.6 2.6 15.8 7.5l-20.2 21.3zm9.5-19.6c-2.7-2.1-8.7-2.8-13.1 1.9-4.4 4.7-3.5 10.4-1.1 13.1l14.2-15zM428.9 49.5h8.1c0 1.6 0 3.1-.1 4.8 1.6-2.8 4.8-6 11.3-6 11.8.1 14.1 9.1 14.1 15.6v21.9h-8.7V66.1c0-5.4-1.8-9.6-7.9-9.6-6.2.1-8.3 4.2-8.3 9.3v20.1h-8.7V49.5z"
     id="path6"
     style="fill:#333366;fill-opacity:1;stroke:#000000;stroke-opacity:1" />
  <path
     class="gk-logo__axosoft"
     d="M200.3 21.7c.1.4.2.8.4 1.1.2.3.5.6.8.8.3.2.7.3 1.2.3s.9-.1 1.2-.3c.3-.2.6-.4.8-.8.2-.3.3-.7.4-1.1.1-.4.1-.8.1-1.2 0-.4 0-.8-.1-1.2-.1-.4-.2-.8-.4-1.1-.2-.3-.5-.6-.8-.8-.3-.2-.7-.3-1.2-.3s-.9.1-1.2.3c-.3.2-.6.5-.8.8-.2.3-.3.7-.4 1.1-.1.4-.1.8-.1 1.2 0 .4 0 .8.1 1.2zM177.7 21.9c.1.4.2.8.4 1.1.2.3.5.6.8.8.3.2.7.3 1.2.3s.9-.1 1.2-.3c.3-.2.6-.4.8-.8.2-.3.3-.7.4-1.1.1-.4.1-.8.1-1.2 0-.4 0-.8-.1-1.2s-.2-.8-.4-1.1c-.2-.3-.5-.6-.8-.8-.3-.2-.7-.3-1.2-.3s-.9.1-1.2.3c-.3.2-.6.4-.8.8-.2.3-.3.7-.4 1.1s-.1.8-.1 1.2c0 .4 0 .8.1 1.2zM159.6 20.8c-.2.1-.4.1-.6.2-.2 0-.4.1-.7.1-.2 0-.5.1-.7.1-.2 0-.4.1-.6.2l-.6.3c-.2.1-.3.3-.4.4-.1.2-.1.4-.1.7 0 .3 0 .5.1.7.1.2.2.3.4.4.2.1.4.2.6.2.2 0 .4.1.7.1.6 0 1-.1 1.3-.3.3-.2.5-.4.7-.7.1-.3.2-.5.3-.8 0-.3.1-.5.1-.7v-1.1c-.2.1-.4.2-.5.2z"
     id="path8"
     style="fill:#e75225;fill-opacity:1;stroke:#000000;stroke-opacity:1" />
  <g
     id="g12"
     style="fill:#e75225;fill-opacity:1">
    <g
       id="g4498">
      <path
         style="fill:#e75225;fill-opacity:1;stroke:#000000;stroke-opacity:1"
         id="path10"
         d="M149.2 8.8L143 28.7h82.9l6.2-19.8h-82.9zm11.1 17c-.1-.2-.1-.3-.1-.5s-.1-.3-.1-.5c-.5.5-1 .8-1.6 1-.6.2-1.3.3-1.9.3-.5 0-1-.1-1.4-.2-.4-.1-.8-.3-1.1-.6-.3-.3-.6-.6-.8-1-.2-.4-.3-.9-.3-1.4 0-.6.1-1.1.3-1.5.2-.4.5-.7.8-.9.3-.2.7-.4 1.1-.5.4-.1.9-.2 1.3-.3.4-.1.9-.1 1.3-.2.4 0 .8-.1 1.1-.2.3-.1.6-.2.8-.4.2-.2.3-.4.3-.7 0-.3-.1-.6-.2-.7-.1-.2-.2-.3-.4-.4-.2-.1-.4-.2-.6-.2-.2 0-.5-.1-.7-.1-.6 0-1 .1-1.3.4-.3.2-.5.7-.6 1.2h-2.9c0-.7.2-1.2.5-1.7s.7-.8 1.1-1.1c.5-.3 1-.5 1.6-.6.6-.1 1.2-.2 1.7-.2s1.1 0 1.6.1 1 .2 1.5.4c.4.2.8.5 1.1.9.3.4.4.9.4 1.5v5.5c0 .5 0 .9.1 1.4.1.4.1.8.3 1h-2.9zm11.5 0l-2.2-3.4c-.7 1.1-1.5 2.2-2.2 3.4v.1h-3.3c1.1-2 2.3-3.9 3.8-5.6l-3.5-4.9h3.3l2 2.9c2.2-2.2 4.6-4 7.4-5.5-2.1 2.4-4.1 4.8-6 7.4l4 5.7h-3.3zm13.3-2.9c-.3.7-.6 1.2-1.1 1.7-.5.5-1 .8-1.7 1.1s-1.4.4-2.2.4c-.8 0-1.6-.1-2.2-.4-.7-.3-1.2-.6-1.7-1.1-.5-.5-.8-1.1-1.1-1.7-.3-.7-.4-1.4-.4-2.3 0-.8.1-1.6.4-2.3.3-.7.6-1.3 1.1-1.7.5-.5 1-.8 1.7-1.1.7-.3 1.4-.4 2.2-.4.8 0 1.6.1 2.2.4s1.2.6 1.7 1.1c.5.5.8 1.1 1.1 1.7.3.7.4 1.4.4 2.3 0 .9-.1 1.6-.4 2.3zm10.9 1.2c-.3.5-.6.8-1.1 1.1-.4.3-1 .5-1.5.6-.6.1-1.2.2-1.8.2-.6 0-1.2-.1-1.8-.2-.6-.1-1.1-.3-1.6-.6s-.8-.7-1.1-1.1c-.3-.5-.5-1.1-.5-1.8h2.8c0 .3.1.6.2.8.1.2.3.4.5.6.2.1.4.2.7.3.3.1.5.1.8.1.2 0 .4 0 .6-.1.2 0 .4-.1.6-.2.2-.1.3-.2.5-.4.1-.2.2-.4.2-.6 0-.4-.3-.8-.9-1-.6-.2-1.4-.4-2.4-.7l-1.2-.3c-.4-.1-.8-.3-1.1-.5-.3-.2-.6-.5-.8-.8-.2-.3-.3-.7-.3-1.2 0-.7.1-1.2.4-1.7.3-.4.6-.8 1.1-1 .4-.3.9-.4 1.5-.5.5-.1 1.1-.2 1.7-.2.6 0 1.1.1 1.7.2.5.1 1 .3 1.4.6.4.3.8.6 1.1 1 .3.4.4 1 .5 1.6h-2.8c0-.6-.3-.9-.6-1.1-.4-.2-.8-.3-1.3-.3h-.5c-.2 0-.4.1-.5.1-.2.1-.3.2-.4.3-.1.1-.2.3-.2.5 0 .3.1.5.3.6.2.2.4.3.7.4.3.1.7.2 1.1.3l1.2.3 1.2.3c.4.1.8.3 1.1.5.3.2.6.5.8.8.2.3.3.7.3 1.2-.2.9-.4 1.4-.6 1.9zm11.8-1.3c-.3.7-.6 1.3-1.1 1.7-.5.5-1.1.9-1.7 1.1-.7.3-1.4.4-2.3.4-.8 0-1.6-.1-2.2-.4-.7-.3-1.2-.6-1.7-1.1-.5-.5-.8-1.1-1.1-1.7-.3-.7-.4-1.4-.4-2.3 0-.8.1-1.6.4-2.3.3-.7.6-1.3 1.1-1.8.5-.5 1-.9 1.7-1.1.7-.3 1.4-.4 2.2-.4.8 0 1.6.1 2.3.4.7.3 1.3.6 1.7 1.1.5.5.8 1.1 1.1 1.8.3.7.4 1.5.4 2.3 0 .8-.1 1.6-.4 2.3zm13.9-5.7h-2.1v5.2c0 .5.1.8.2 1 .2.2.5.2 1 .2h.5c.2 0 .3 0 .4-.1v2.2c-.2 0-.5.1-.8.1h-.9c-.4 0-.9 0-1.3-.1s-.8-.2-1.1-.4c-.3-.2-.5-.4-.7-.8-.2-.3-.3-.8-.3-1.3v-6.2h-3.5v8.6h-2.9v-8.6h-1.7V15h1.7v-.8c0-.9.3-1.7.9-2.3.6-.6 1.5-.9 2.7-.9h.8c.3 0 .5 0 .8.1v2.2c-.3 0-.7-.1-1.1-.1-.4 0-.7.1-.8.3-.2.2-.3.5-.3.9v.6h3.5v-3h2.9v3.2h2.1v1.9z"
         class="gk-logo__axosoft" />
    </g>
  </g>
  <g
     aria-label="PRO"
     style="font-style:normal;font-variant:normal;font-weight:normal;font-stretch:normal;font-size:40px;line-height:1.25;font-family:'Butcherman Caps';-inkscape-font-specification:'Butcherman Caps';letter-spacing:0px;word-spacing:0px;fill:#000000;fill-opacity:1;stroke:none"
     id="text4490">
    <path
       d="m 21.267371,71.953766 v -1.15625 q 0,-3.3125 -1.5,-10.65625 -1.46875,-7.34375 -1.46875,-11.5625 0,-4.25 -1.78125,-6.625 -0.59375,-0.8125 -2.21875,-2 -1.59375,-1.21875 -2.28125,-2.125 8.40625,-1.4375 14.6875,-1.4375 h 1.3125 q 0.53125,-0.78125 1,-0.78125 l 0.46875,0.09375 q 0.1875,0 0.34375,-0.15625 0,0.84375 1.5625,0.84375 l 0.5625,0.5625 1.65625,-1.34375 q 0.03125,0.4375 0.8125,0.71875 1.03125,0.375 2.65625,0.375 v -0.3125 q 1.75,0 3.21875,1.03125 1.46875,1 2.375,2.625 1.875,3.4375 1.875,7.15625 -1.625,1.78125 -1.6875,8.625 -0.0625,6.75 -1.21875,11.625 -0.59375,2.5 -2.21875,4.15625 -1.59375,1.65625 -4.125,1.65625 l -0.53125,-0.6875 h -0.15625 q -0.25,0 -0.40625,0.34375 -0.125,0.34375 -0.40625,0.34375 h -0.1875 v -0.6875 l -1.4375,0.84375 -0.21875,-0.84375 h -0.5625 v 0.6875 l -0.59375,-0.6875 v 0.6875 l -0.5,0.75 0.5,7.90625 -0.5,0.75 q 0.40625,0 0.46875,0.71875 0.09375,0.75 0.125,1.6875 0.0625,0.96875 0.375,1.34375 l -0.46875,-0.4375 v 0.59375 q -0.5625,0 -0.59375,0.15625 0,-0.65625 0.09375,-0.9375 l -0.3125,-0.78125 -0.875,0.53125 v 0.75 h -0.53125 q 0.53125,0.4375 0.53125,1.1875 l -0.53125,-1.1875 -0.65625,0.0625 0.09375,-0.46875 q 0,-0.125 -0.28125,-0.46875 -0.28125,-0.34375 -0.28125,-0.5625 l -1.15625,-0.84375 q -0.1875,0.0625 -0.53125,0.125 -0.3125,0.0625 -0.46875,0.09375 -0.125,0.0625 -0.3125,0.21875 -0.3125,0.21875 -0.3125,1.09375 l 0.4375,0.75 h -0.4375 q -1.125,0 -2.03125,-3.6875 -0.90625,-3.71875 -0.90625,-5.40625 0,-1.6875 0.625,-2.5 -0.40625,0 -0.59375,-0.3125 -0.15625,-0.3125 -0.25,-0.5 -0.09375,-0.21875 -0.15625,-0.53125 -0.09375,-0.71875 -0.09375,-1.40625 z m 14.03125,-13.84375 -1.0625,-2.21875 h -4.5625 v 0.6875 q 0.40625,0 0.5,0.125 0.125,0.125 0.125,0.65625 v 1.4375 q 0,0.53125 -0.09375,0.625 -0.09375,0.09375 -0.53125,0.09375 l 0.625,0.6875 v 5.125 l 0.5,0.71875 v 0.71875 q 0.59375,0 0.59375,-0.71875 h 3.90625 z"
       style="font-style:normal;font-variant:normal;font-weight:normal;font-stretch:normal;font-size:64px;line-height:1.25;font-family:'Butcherman Caps';-inkscape-font-specification:'Butcherman Caps';fill:#ff3300;stroke:#000000;stroke-opacity:1"
       id="path4490" />
    <path
       d="m 71.954871,86.110016 0.59375,-1.65625 -0.375,-0.3125 h -0.8125 q 0,0.0625 -0.6875,0.25 -0.65625,-1.40625 -0.65625,-2.84375 0,-1.46875 0.0625,-2.1875 l -0.5625,-0.96875 0.15625,-2.34375 0.15625,0.3125 0.09375,-0.21875 -0.40625,-0.6875 v -0.6875 l -0.5625,-0.75 0.0625,-0.71875 q 0,-0.625 -0.25,-1.5 -0.65625,0 -1.59375,0.375 -0.90625,0.34375 -1.09375,0.40625 v -0.71875 l -0.5,0.71875 h 0.25 l 0.25,2.1875 -0.65625,1.21875 0.65625,0.15625 q 0,1.9375 0.28125,5.625 0.3125,3.65625 0.3125,5.5625 l -0.46875,-0.90625 -0.0625,-0.15625 0.0625,0.09375 q 0,-1.40625 -0.5,-2.15625 -0.46875,-0.71875 -1.84375,-0.71875 -1.15625,1.4375 -1.15625,3.59375 1.03125,-0.9375 1.15625,-1.28125 v 0.875 l -0.5625,0.71875 q -1.125,0 -1.25,-0.96875 0,0.125 0.0625,0.34375 0.0625,0.21875 0.0625,0.3125 -0.25,-0.34375 -0.4375,-1.125 -0.1875,-0.78125 -0.46875,-1.3125 -0.28125,-0.5 -0.84375,-0.5 -1,0 -1,1.1875 0.03125,-0.21875 0.21875,-0.4375 0.1875,-0.21875 0.28125,-0.21875 l -0.5625,1.375 q -0.15625,-0.46875 -0.46875,-1.09375 -0.6875,-1.3125 -0.6875,-2.40625 0,-5.21875 -1.09375,-7.78125 h 0.53125 l -0.5625,-5.875 0.03125,-0.71875 h -0.625 l -0.5625,-2.84375 0.5625,-0.71875 q 0,-0.8125 -0.75,-0.8125 l -0.40625,0.09375 0.0625,-1.46875 q 0.53125,-0.40625 0.53125,-1.46875 h -1.125 l -0.625,-12.28125 q -0.8125,-0.90625 -1.28125,-2.5 -0.46875,-1.625 -1.03125,-2.3125 -0.5625,-0.71875 -1.4375,-0.9375 0,-1.5625 -1.59375,-2.28125 -1.5625,-0.75 -1.5625,-2.03125 1.40625,0 4.0625,-0.75 2.6875,-0.78125 4.0625,-0.78125 l 1.09375,0.75 q 1.1875,-1.4375 2.625,-1.65625 1.9375,-0.25 3.6875,-0.25 5.90625,0 7.875,1.03125 l 0.96875,-0.65625 1.5625,0.09375 q 0.375,0.5 2.25,1.53125 1.90625,1.03125 2.6875,1.3125 0.78125,0.25 1.96875,1.625 1.1875,1.375 1.84375,1.375 0.9375,0.9375 0.9375,5.5625 0,4.59375 -0.9375,13.15625 -0.0625,0.59375 -1.15625,3.1875 -1.09375,2.59375 -1.09375,3.46875 0,0.875 0.21875,1.21875 l -0.5,0.09375 q -0.3125,0.375 -1,0.5625 -0.65625,0.1875 -1.0625,0.53125 -0.40625,0.3125 -0.40625,1.15625 1.5625,1.8125 1.78125,5.03125 0.09375,1.125 0.09375,2.90625 l -0.71875,0.46875 0.09375,0.90625 q 1.375,1.78125 1.375,4.8125 l -1.09375,1.84375 -0.28125,-0.0625 -1.25,-1.4375 v 0.65625 q -1.75,0 -1.96875,-0.65625 -0.3125,-0.96875 -1.15625,-1.5 l 0.125,1.3125 q 0,0.28125 -0.34375,0.78125 -0.34375,0.53125 -0.40625,0.65625 z m -5.75,-22.53125 q 0.3125,0.15625 0.84375,0.28125 0.5625,0.125 1.78125,0.15625 1.25,0.03125 1.1875,-0.8125 h 0.65625 q 0,-0.84375 0.6875,-1.5 v -2.1875 q 0.25,0 0.40625,-0.21875 0.1875,-0.25 0.1875,-0.5 0,-0.28125 -0.3125,-0.6875 -0.28125,-0.4375 -0.28125,-0.75 l -2.40625,-2.15625 h -2.28125 l -0.59375,0.6875 -0.5,-0.6875 v 0.6875 h -0.59375 l 0.59375,0.78125 v 2.84375 q -0.59375,0 -0.59375,0.75 h 0.59375 q 0,0.1875 0,0.8125 0,0.59375 0,0.96875 0.03125,0.375 0.15625,0.875 0.15625,0.46875 0.46875,0.65625 z m 3.8125,1.03125 -0.5,-0.71875 v 0.71875 z m -3.34375,22.71875 q 0.0625,0.0625 0.0625,0.125 0,0.0625 -0.0625,0.125 z m -0.53125,-1.0625 q -0.0625,0 -0.0625,-0.15625 z"
       style="font-style:normal;font-variant:normal;font-weight:normal;font-stretch:normal;font-size:64px;line-height:1.25;font-family:'Butcherman Caps';-inkscape-font-specification:'Butcherman Caps';fill:#ff3300;stroke:#000000;stroke-opacity:1"
       id="path4492" />
    <path
       d="m 102.36112,88.735016 0.0625,-1.15625 q 0,-4.375 -1.5625,-4.375 -0.8125,0 -1.124999,0.25 -0.3125,0.28125 -0.5,0.46875 -0.1875,0.1875 -0.3125,0.53125 -0.125,0.375 -0.21875,0.625 -0.09375,0.25 -0.1875,0.71875 -0.0625,0.46875 -0.09375,0.6875 -0.03125,0.25 -0.09375,0.78125 -0.0625,0.5625 -0.09375,0.75 -1.5,0 -1.5,-1.90625 0,-1.4375 -2.875,-3.15625 -1.21875,-0.75 -1.59375,-1.125 v 0.6875 h -0.5625 l 0.5625,-0.6875 q -0.125,-0.15625 -0.75,-0.90625 -0.59375,-0.75 -0.84375,-1.15625 -0.875,-1.25 -0.875,-2.34375 h 0.65625 q 0,-1.71875 -0.96875,-4.9375 -0.9375,-3.21875 -0.9375,-5.5625 0,-2.34375 -0.9375,-7.0625 -0.90625,-4.75 -0.90625,-7.03125 l -0.6875,-0.75 0.6875,0.59375 -0.1875,-2.09375 -0.21875,0.15625 -0.28125,-0.09375 0.6875,-0.78125 -0.6875,-0.625 q 0,-3.375 2.1875,-6.46875 2.21875,-3.09375 5.34375,-4.84375 3.15625,-1.75 6.03125,-1.75 l 0.562499,0.71875 0.59375,-0.71875 q 0.46875,0 1.375,0.375 0.90625,0.34375 1.40625,0.34375 l 0.59375,-0.71875 q 1.40625,1.75 5.1875,2.15625 l 1.25,1.5 v -0.8125 h 0.65625 l -0.0625,0.8125 0.625,0.71875 -0.5625,0.71875 q 0.71875,0 1.65625,0.25 0.9375,0.21875 0.9375,0.8125 0,0.125 -0.125,0.3125 l 1.28125,1.53125 h -0.625 q 0,3.84375 0.375,4.90625 0.40625,1.03125 0.875,1.5625 -1.25,0 -1.25,1.28125 0,1.28125 0.4375,1.90625 -0.5,0.9375 -0.5,1.375 0,0.40625 0.0625,0.5 h 0.625 v 0.4375 q 0,12.625 -1.90625,12.625 l -0.59375,4.375 h 0.59375 l -1.5,2.3125 0.21875,0.53125 q -0.25,2.8125 -2.46875,5.84375 0,1.5 -0.5625,3.25 -0.53125,1.78125 -0.65625,2.25 -0.59375,0 -0.65625,0.3125 l 0.0937,-2.5 q 0,-0.34375 -0.25,-0.8125 -0.21875,-0.4375 -0.53125,-0.4375 l -0.34375,0.0625 q -1.0625,1.28125 -1.40625,1.96875 -0.34375,0.71875 -0.375,1.5625 l 0.0312,-0.15625 q 0,0.125 -0.0312,0.15625 v 0.15625 q -0.15625,0.4375 -0.5,0.75 -0.3125,0.34375 -0.59375,0.34375 z m -0.5,-31.5625 q 0,-0.71875 -0.75,-0.71875 h -0.375 v -0.75 h -0.59375 q 0,0.75 -0.562499,0.75 v 0.71875 h -0.5625 l -1.09375,2.15625 q 0,0.84375 -0.3125,2.3125 -0.3125,1.4375 -0.3125,3.1875 0,1.71875 0.625,2.5 h -0.625 q 0,0.4375 0.125,0.5625 0.125,0.125 0.5,0.125 v 3.59375 q 0.28125,0.34375 0.59375,2 0.3125,1.625 0.5,1.625 0.125,0.21875 0.40625,0.875 0.53125,1.3125 1.312499,1.3125 1.03125,0 1.625,-1.78125 0.59375,-1.78125 0.59375,-3.28125 h -0.53125 v -0.75 h 0.53125 l 0.5625,-0.71875 v -5.75 q 0,-0.96875 -0.28125,-2.375 -0.28125,-1.40625 -0.28125,-2.8125 v -0.625 z m -3.468749,30.3125 q 0,0.03125 -0.03125,0.09375 0,0.0625 0,0.125 v -0.125 q 0,-0.03125 0.03125,-0.09375 z"
       style="font-style:normal;font-variant:normal;font-weight:normal;font-stretch:normal;font-size:64px;line-height:1.25;font-family:'Butcherman Caps';-inkscape-font-specification:'Butcherman Caps';fill:#ff3300;stroke:#000000;stroke-opacity:1"
       id="path4494" />
  </g>
</svg>
